<svg xmlns="http://www.w3.org/2000/svg" baseProfile="full" version="1.1" style="fill: none;" width="1860px" height="870px"><path style="stroke-width: 15px; stroke-linecap: round; stroke-linejoin: round; stroke: rgb(106, 106, 106); fill: none;" d=""/><path style="stroke-width: 15px; stroke-linecap: round; stroke-linejoin: round; stroke: rgb(74, 74, 74); fill: none;" d=""/><path style="stroke-width: 10px; stroke-linecap: round; stroke-linejoin: round; stroke: rgb(0, 0, 0); fill: none;" d="M345,300 A45,45 0 0,0 300,345 M345,300 L345,300 L495,300 A45,45 0 0,1 540,345 L540,345 L540,540 M480,540 L480,540 L345,540 A45,45 0 0,1 300,495 L300,495 L300,345 M420,495 A60,60 0 0,0 480,435 L480,435 M465,345 A15,15 0 0,0 480,360 L480,360 M420,375 A60,60 0 0,1 480,435 M420,375 A60,60 0 0,0 360,435 A60,60 0 0,0 420,495 M540,540 L540,540 L570,510 M540,540 L540,540 L510,510 M495,345 A15,15 0 0,1 480,360 M420,465 A30,30 0 0,0 450,435 M465,345 A15,15 0 0,1 480,330 A15,15 0 0,1 495,345 M420,465 L420,465 L420,465 M420,405 A30,30 0 0,0 390,435 "/></svg>